<?xml version="1.0" encoding="utf-8"?>
<svg viewBox="0 0 500 500" xmlns="http://www.w3.org/2000/svg">
  <g transform="matrix(1, 0, 0, 1, 32.091938, -7.312958)">
    <g>
      <path d="M373.274,299.479c-0.192-0.928-0.472-1.857-0.84-2.756c-0.368-0.884-0.825-1.739-1.356-2.535 c-0.545-0.812-1.164-1.564-1.842-2.241c-0.678-0.678-1.429-1.297-2.241-1.842c-0.794-0.529-1.649-0.987-2.535-1.356 c-0.897-0.368-1.827-0.647-2.756-0.84c-1.916-0.383-3.861-0.383-5.762,0c-0.943,0.193-1.872,0.472-2.754,0.84 c-0.899,0.368-1.754,0.827-2.549,1.356c-0.81,0.545-1.562,1.164-2.24,1.842c-0.678,0.678-1.298,1.43-1.827,2.241 c-0.531,0.796-0.987,1.651-1.356,2.535c-0.368,0.899-0.663,1.827-0.84,2.756c-0.192,0.956-0.295,1.931-0.295,2.888 c0,0.956,0.103,1.93,0.295,2.874c0.177,0.943,0.472,1.872,0.84,2.756c0.368,0.897,0.825,1.752,1.356,2.548 c0.529,0.811,1.149,1.564,1.827,2.241c0.678,0.678,1.429,1.297,2.24,1.826c0.796,0.531,1.651,0.987,2.549,1.356 c0.884,0.368,1.811,0.648,2.754,0.84c0.945,0.192,1.917,0.295,2.874,0.295c0.958,0,1.932-0.103,2.888-0.295 c0.928-0.192,1.858-0.472,2.756-0.84c0.886-0.368,1.74-0.825,2.535-1.356c0.812-0.529,1.564-1.148,2.241-1.826 c0.678-0.678,1.297-1.431,1.827-2.241c0.529-0.796,0.987-1.651,1.356-2.548c0.368-0.886,0.663-1.813,0.855-2.756 c0.192-0.945,0.279-1.917,0.279-2.874C373.553,301.41,373.465,300.436,373.274,299.479z" style="fill: rgb(255, 255, 255); stroke: rgb(0, 0, 0);"/>
    </g>
  </g>
  <g transform="matrix(1, 0, 0, 1, 32.091938, -7.312958)">
    <g>
      <path d="M484.702,347.568h-1.474V123.451C483.228,55.38,427.847,0,359.776,0S236.322,55.38,236.322,123.451v139.624h-72.768 v-56.608c11.179-33.819,49.872-141.892,60.631-160.347c2.659-4.558,2.675-10.189,0.047-14.765s-7.502-7.396-12.778-7.396H27.298 c-5.535,0-10.603,3.101-13.122,8.03c-2.52,4.929-2.063,10.854,1.179,15.339c12.03,16.645,47.423,116.995,61.128,158.828v182.392 c0,68.07,55.382,123.451,123.454,123.451c68.07,0,123.451-55.38,123.451-123.451V123.451c0-14.445,8.465-26.949,20.693-32.82 v167.522c0,8.138,6.599,14.737,14.737,14.737c8.138,0,14.737-6.599,14.737-14.737V89.789 c13.248,5.442,22.603,18.478,22.603,33.663v224.116h-1.972c-8.138,0-14.737,6.599-14.737,14.737 c0,8.138,6.599,14.737,14.737,14.737H484.7c8.138,0,14.737-6.599,14.737-14.737C499.437,354.167,492.841,347.568,484.702,347.568z M236.32,292.55v40.281h-72.768V292.55H236.32z M163.554,362.305h72.767v26.245c0,20.06-16.321,36.382-36.382,36.382 c-20.063,0-36.385-16.321-36.385-36.382V362.305z M51.516,53.435h136.938c-15.188,36.385-38.408,101.559-49.001,132.35h-38.707 C91.205,157.444,68.416,91.17,51.516,53.435z M453.754,340.951h-28.122v-217.5c0-36.311-29.544-65.854-65.857-65.854 c-36.316,0-65.858,29.543-65.858,65.855v265.095c0,51.82-42.157,93.977-93.977,93.977c-51.822,0-93.98-42.157-93.98-93.977 v-173.29h28.122v173.29c0,36.313,29.544,65.855,65.858,65.855s65.855-29.543,65.855-65.855V123.451 c0-51.82,42.159-93.977,93.98-93.977c51.82,0,93.979,42.157,93.979,93.977V340.951z" style="fill: rgb(255, 255, 255); stroke: rgb(0, 0, 0);"/>
    </g>
  </g>
  <g transform="matrix(1, 0, 0, 1, 32.091938, -7.312958)"/>
  <g transform="matrix(1, 0, 0, 1, 32.091938, -7.312958)"/>
  <g transform="matrix(1, 0, 0, 1, 32.091938, -7.312958)"/>
  <g transform="matrix(1, 0, 0, 1, 32.091938, -7.312958)"/>
  <g transform="matrix(1, 0, 0, 1, 32.091938, -7.312958)"/>
  <g transform="matrix(1, 0, 0, 1, 32.091938, -7.312958)"/>
  <g transform="matrix(1, 0, 0, 1, 32.091938, -7.312958)"/>
  <g transform="matrix(1, 0, 0, 1, 32.091938, -7.312958)"/>
  <g transform="matrix(1, 0, 0, 1, 32.091938, -7.312958)"/>
  <g transform="matrix(1, 0, 0, 1, 32.091938, -7.312958)"/>
  <g transform="matrix(1, 0, 0, 1, 32.091938, -7.312958)"/>
  <g transform="matrix(1, 0, 0, 1, 32.091938, -7.312958)"/>
  <g transform="matrix(1, 0, 0, 1, 32.091938, -7.312958)"/>
  <g transform="matrix(1, 0, 0, 1, 32.091938, -7.312958)"/>
  <g transform="matrix(1, 0, 0, 1, 32.091938, -7.312958)"/>
</svg>